<svg width="18" height="11" viewBox="0 0 18 11" fill="none" xmlns="http://www.w3.org/2000/svg">
<path d="M16.6693 0C17.4042 0 18 0.603378 18 1.34768C18 2.09199 17.4042 2.69536 16.6693 2.69536C16.5289 2.69536 16.3937 2.6733 16.2666 2.63251C15.5905 2.74223 15.1728 2.97761 14.8916 3.22835C14.4809 3.59463 14.2159 4.12011 13.9758 4.82932C13.8519 5.19534 13.7583 5.53245 13.6328 5.93975C13.5162 6.31797 13.3771 6.73764 13.1889 7.12829C12.7878 7.96132 12.1103 8.7496 10.8934 8.91445C10.409 8.98007 9.94652 8.89864 9.53309 8.66784C9.13722 8.44685 8.85241 8.12608 8.6443 7.81875C8.25664 7.24627 7.98733 6.47772 7.77986 5.93264C7.5398 5.30194 7.34227 4.84188 7.09903 4.5294C6.9017 4.2759 6.719 4.17074 6.42607 4.17074C6.09614 4.17074 5.91258 4.28558 5.70355 4.62195C5.43731 5.0504 5.24946 5.66632 4.98959 6.52855C4.75475 7.30773 4.45909 8.28985 3.94509 9.10169C3.5493 9.72683 3.01082 10.2737 2.27479 10.602C2.03373 10.8478 1.69981 11 1.33074 11C0.595792 11 0 10.3966 0 9.65232C0 8.90801 0.595792 8.30464 1.33074 8.30464C1.44299 8.30464 1.55198 8.31876 1.65611 8.34526C1.82536 8.21908 1.96877 8.05089 2.1025 7.83966C2.41763 7.34192 2.63277 6.67697 2.88439 5.84215C3.11096 5.09038 3.38521 4.12535 3.85067 3.37632C4.37335 2.53521 5.1911 1.87604 6.42607 1.87604C7.50765 1.87604 8.28153 2.40181 8.81372 3.0855C9.29999 3.71021 9.60493 4.49361 9.83116 5.08799C10.09 5.76799 10.2508 6.20618 10.448 6.49739C10.5131 6.59348 10.5556 6.63046 10.5705 6.64177C10.5775 6.64192 10.5896 6.64155 10.6085 6.63899C10.8712 6.6034 11.0255 6.49694 11.2163 6.1006C11.3242 5.87658 11.4212 5.59791 11.5319 5.23909C11.6335 4.90936 11.7583 4.47072 11.8948 4.06727C12.1757 3.23755 12.6001 2.24917 13.4556 1.4863C14.0537 0.952907 14.7991 0.584077 15.7207 0.402583C15.9621 0.154119 16.2979 0 16.6693 0Z" fill="white"/>
</svg>
